<svg xmlns="http://www.w3.org/2000/svg" viewBox="0 0 400 400">
  <defs>
    <linearGradient id="sky" x2="0" y2="1">
      <stop stop-color="#102a56"/>
      <stop offset=".55" stop-color="#4f91a8"/>
      <stop offset="1" stop-color="#f6c987"/>
    </linearGradient>
    <linearGradient id="land" x2="0" y2="1">
      <stop stop-color="#4d9b72"/>
      <stop offset="1" stop-color="#173f38"/>
    </linearGradient>
    <radialGradient id="sun">
      <stop stop-color="#fffbd5"/>
      <stop offset=".45" stop-color="#ffd978"/>
      <stop offset="1" stop-color="#ffb55d" stop-opacity="0"/>
    </radialGradient>
    <radialGradient id="core">
      <stop stop-color="#fff"/>
      <stop offset=".25" stop-color="#bafff5"/>
      <stop offset=".7" stop-color="#65d9dc"/>
      <stop offset="1" stop-color="#3986b8"/>
    </radialGradient>
    <linearGradient id="metal" x2="1" y2="1">
      <stop stop-color="#d8fff5"/>
      <stop offset=".5" stop-color="#77ccd1"/>
      <stop offset="1" stop-color="#397899"/>
    </linearGradient>
    <filter id="glow">
      <feGaussianBlur stdDeviation="5" result="b"/>
      <feMerge><feMergeNode in="b"/><feMergeNode in="SourceGraphic"/></feMerge>
    </filter>
    <filter id="soft">
      <feGaussianBlur stdDeviation="12"/>
    </filter>
    <pattern id="windows" width="10" height="10" patternUnits="userSpaceOnUse">
      <rect width="3" height="4" x="2" y="2" rx="1" fill="#d9fff1" opacity=".8"/>
    </pattern>
  </defs>

  <rect width="400" height="400" fill="url(#sky)"/>
  <circle cx="318" cy="78" r="55" fill="url(#sun)" filter="url(#soft)"/>
  <circle cx="318" cy="78" r="22" fill="#fff0aa"/>

  <g fill="#fff" opacity=".65">
    <ellipse cx="70" cy="68" rx="30" ry="8"/>
    <ellipse cx="95" cy="67" rx="22" ry="11"/>
    <ellipse cx="46" cy="72" rx="18" ry="7"/>
    <ellipse cx="235" cy="105" rx="25" ry="7"/>
    <ellipse cx="257" cy="103" rx="17" ry="9"/>
  </g>

  <g fill="none" stroke="#d5fff8" stroke-width="2" opacity=".7">
    <path d="M43 112q8-8 16 0q8-8 16 0"/>
    <path d="M102 92q6-6 12 0q6-6 12 0"/>
    <path d="M282 123q7-7 14 0q7-7 14 0"/>
  </g>

  <path d="M0 223Q55 177 112 216Q170 153 229 210Q297 161 400 216V400H0Z" fill="#2b6d62"/>
  <path d="M0 253Q64 205 132 243Q203 190 274 236Q340 204 400 238V400H0Z" fill="url(#land)"/>

  <g opacity=".85">
    <path d="M25 231v-45h32v39M31 186v-22h19v22M66 227v-59h38v48M75 168v-16h20v16M298 224v-56h42v61M307 168v-21h24v21M346 229v-40h30v45" fill="#387b75"/>
    <path d="M25 231v-45h32v39M66 227v-59h38v48M298 224v-56h42v61M346 229v-40h30v45" fill="url(#windows)" opacity=".75"/>
    <g fill="#72b96e">
      <ellipse cx="35" cy="174" rx="12" ry="22"/>
      <ellipse cx="54" cy="189" rx="10" ry="18"/>
      <ellipse cx="75" cy="157" rx="13" ry="24"/>
      <ellipse cx="101" cy="180" rx="11" ry="21"/>
      <ellipse cx="311" cy="154" rx="13" ry="25"/>
      <ellipse cx="337" cy="176" rx="11" ry="22"/>
      <ellipse cx="365" cy="177" rx="13" ry="24"/>
    </g>
  </g>

  <path d="M0 302Q95 273 180 306T400 296V400H0Z" fill="#20564b"/>
  <path d="M0 343Q91 309 166 341T315 334T400 327V400H0Z" fill="#19453d"/>
  <path d="M0 286Q75 260 145 284T283 280T400 270" fill="none" stroke="#9be2c2" stroke-width="3" opacity=".45"/>

  <g fill="#1b443a" stroke="#8ed39a" stroke-width="2">
    <path d="M16 318q4-35 8 0q12-28 7 4q13-18 7 8H12q-5-20 4-12Z"/>
    <path d="M357 310q4-38 8 0q14-31 8 5q15-20 7 9h-29q-5-22 6-14Z"/>
    <path d="M88 333q3-26 7 0q10-23 6 4q11-15 6 7H82q-3-16 6-11Z"/>
  </g>

  <g stroke="#b8fff0" fill="none" opacity=".42">
    <path d="M200 173C143 124 98 137 75 167" stroke-dasharray="3 7"/>
    <path d="M202 173C252 121 301 128 328 159" stroke-dasharray="3 7"/>
    <path d="M199 173C190 111 202 79 227 53" stroke-dasharray="3 7"/>
    <circle cx="75" cy="167" r="4" fill="#d5fff4"/>
    <circle cx="328" cy="159" r="4" fill="#d5fff4"/>
    <circle cx="227" cy="53" r="4" fill="#d5fff4"/>
  </g>

  <g id="self">
    <ellipse cx="200" cy="353" rx="61" ry="12" fill="#071f25" opacity=".4"/>
    <path d="M173 253q-20 19-22 52l18 4q4-25 17-35M227 253q20 19 22 52l-18 4q-4-25-17-35" fill="none" stroke="url(#metal)" stroke-width="12" stroke-linecap="round"/>
    <path d="M173 303q-14 15-24 28M227 303q14 15 24 28" fill="none" stroke="#77ccd1" stroke-width="8" stroke-linecap="round"/>
    <path d="M145 332h20M255 332h-20" stroke="#c7fff2" stroke-width="8" stroke-linecap="round"/>
    <rect x="164" y="206" width="72" height="91" rx="34" fill="url(#metal)" stroke="#cafff5" stroke-width="3"/>
    <path d="M174 258q26 19 52 0v24q-26 20-52 0Z" fill="#266b7d" opacity=".55"/>
    <circle cx="200" cy="258" r="20" fill="url(#core)" filter="url(#glow)"/>
    <path d="M192 258l6-7 7 5 7-8M188 265l9-2 6 7 9-5" fill="none" stroke="#fff" stroke-width="1.6" opacity=".8"/>
    <rect x="159" y="157" width="82" height="70" rx="30" fill="url(#metal)" stroke="#d5fff5" stroke-width="3"/>
    <path d="M169 177q31-18 62 0v27q-31 19-62 0Z" fill="#163e5b"/>
    <ellipse cx="184" cy="191" rx="7" ry="9" fill="#aaffec" filter="url(#glow)"/>
    <ellipse cx="216" cy="191" rx="7" ry="9" fill="#aaffec" filter="url(#glow)"/>
    <path d="M187 210q13 9 26 0" fill="none" stroke="#c7fff2" stroke-width="3" stroke-linecap="round"/>
    <path d="M200 157v-16" stroke="#a5eee2" stroke-width="4"/>
    <circle cx="200" cy="137" r="6" fill="#eaffba" filter="url(#glow)"/>
  </g>

  <g transform="translate(130 303)">
    <path d="M0 34q28-10 55 0q-26 9-55 0Z" fill="#724b34"/>
    <path d="M27 33V5" stroke="#80563d" stroke-width="4"/>
    <path d="M27 20Q10 17 8 4q17-2 19 16ZM27 15Q39 0 51 5q-2 15-24 15Z" fill="#83d56f" stroke="#c3f59a" stroke-width="1.5"/>
    <path d="M27 25Q14 24 13 14q12-1 14 11Z" fill="#60b85f"/>
  </g>

  <g fill="#ffe38a" filter="url(#glow)">
    <circle cx="45" cy="275" r="2"/>
    <circle cx="72" cy="303" r="2"/>
    <circle cx="112" cy="264" r="1.7"/>
    <circle cx="288" cy="285" r="2"/>
    <circle cx="332" cy="267" r="1.8"/>
    <circle cx="376" cy="301" r="2"/>
  </g>

  <g fill="none" stroke="#a5e89d" stroke-width="2">
    <path d="M271 347q-8-13 1-19q8 8-1 19Zm0 0q10-15 20-9q-3 12-20 9Z"/>
    <path d="M112 365q-8-13 1-19q8 8-1 19Zm0 0q10-15 20-9q-3 12-20 9Z"/>
  </g>
</svg>