<svg xmlns="http://www.w3.org/2000/svg" viewBox="0 0 400 400"><title>Una linterna en un mundo compartido</title><desc>Un ser de luz con los brazos abiertos al anochecer, entre un arbol de libros, una casa encendida y personas que leen, plantan y descansan.</desc><defs><linearGradient id="sky" x1="0" y1="0" x2="0" y2="1"><stop offset="0" stop-color="#0c1233"/><stop offset=".4" stop-color="#3a4a86"/><stop offset=".66" stop-color="#d4766a"/><stop offset=".8" stop-color="#f2c394"/><stop offset="1" stop-color="#f7e7cf"/></linearGradient><radialGradient id="sun" cx="50%" cy="50%" r="50%"><stop offset="0" stop-color="#fff8dc"/><stop offset=".32" stop-color="#ffd56a"/><stop offset="1" stop-color="#ffd56a" stop-opacity="0"/></radialGradient><radialGradient id="aura" cx="50%" cy="38%" r="50%"><stop offset="0" stop-color="#fff6dd" stop-opacity=".9"/><stop offset="1" stop-color="#fff6dd" stop-opacity="0"/></radialGradient><linearGradient id="hill" x1="0" y1="0" x2="0" y2="1"><stop offset="0" stop-color="#8fb573"/><stop offset="1" stop-color="#3f6b48"/></linearGradient><linearGradient id="near" x1="0" y1="0" x2="0" y2="1"><stop offset="0" stop-color="#3e7a4e"/><stop offset="1" stop-color="#1e3a2c"/></linearGradient></defs><rect width="400" height="400" fill="url(#sky)"/><g fill="#fff"><circle cx="18" cy="28" r="1.1"/><circle cx="42" cy="62" r=".8"/><circle cx="74" cy="22" r="1.3"/><circle cx="108" cy="48" r=".7"/><circle cx="136" cy="16" r="1"/><circle cx="168" cy="36" r="1.4"/><circle cx="198" cy="18" r=".8"/><circle cx="228" cy="44" r="1.1"/><circle cx="258" cy="20" r=".9"/><circle cx="286" cy="38" r="1.2"/><circle cx="324" cy="14" r="1"/><circle cx="356" cy="30" r="1.3"/><circle cx="382" cy="58" r=".8"/><circle cx="28" cy="96" r=".7"/><circle cx="96" cy="88" r="1"/><circle cx="154" cy="72" r=".6"/><circle cx="246" cy="78" r=".9"/><circle cx="300" cy="66" r=".7"/><circle cx="348" cy="92" r="1"/><circle cx="210" cy="58" r="1.5"/></g><g stroke="#fff" stroke-width=".6" fill="none" opacity=".55"><path d="M168 36 L198 18 L228 44 L210 58 L168 36"/><path d="M136 16 L168 36"/></g><path d="M36 78 L78 96" stroke="#fff6d8" stroke-width="1.2" opacity=".75"/><circle cx="78" cy="96" r="1.4" fill="#fff6d8"/><circle cx="312" cy="198" r="86" fill="url(#sun)"/><circle cx="312" cy="198" r="20" fill="#fff9e4"/><g fill="#fff" opacity=".16"><ellipse cx="250" cy="116" rx="36" ry="10"/><ellipse cx="272" cy="112" rx="20" ry="8"/><ellipse cx="48" cy="128" rx="24" ry="8"/></g><g fill="none" stroke="#f8e7cf" stroke-width="1.15" stroke-linecap="round"><path d="M146 104 Q154 96 162 104 Q170 96 178 104"/><path d="M40 114 Q46 108 52 114 Q58 108 64 114"/></g><path d="M0 226 C48 196 78 218 118 188 C162 158 188 196 230 176 C278 152 308 186 348 166 C372 156 388 172 400 164 V400 H0Z" fill="#9aafd0" opacity=".32"/><path d="M0 262 C58 236 96 270 152 246 C204 224 236 258 286 238 C332 220 362 250 400 232 V400 H0Z" fill="#d7b08a" opacity=".45"/><g><path d="M86 304 C84 252 78 228 92 198" fill="none" stroke="#6b4226" stroke-width="7" stroke-linecap="round"/><path d="M88 250 C68 238 50 220 44 198" fill="none" stroke="#6b4226" stroke-width="3" stroke-linecap="round"/><path d="M90 232 C108 214 124 198 134 176" fill="none" stroke="#6b4226" stroke-width="3" stroke-linecap="round"/><path d="M90 210 C72 196 64 174 74 156" fill="none" stroke="#6b4226" stroke-width="2.4" stroke-linecap="round"/><circle cx="48" cy="186" r="28" fill="#2d6a4f"/><circle cx="84" cy="158" r="34" fill="#40916c"/><circle cx="122" cy="174" r="26" fill="#52b788"/><circle cx="70" cy="194" r="22" fill="#74c69d"/><circle cx="102" cy="142" r="16" fill="#95d5b2"/><rect x="38" y="172" width="9" height="13" rx="1" fill="#e07a5f" transform="rotate(-14 42 178)"/><rect x="98" y="132" width="8" height="12" rx="1" fill="#f4d35e" transform="rotate(10 102 138)"/><rect x="116" y="166" width="9" height="13" rx="1" fill="#9b5de5" transform="rotate(8 120 172)"/><rect x="64" y="186" width="8" height="11" rx="1" fill="#f4a261"/><rect x="86" y="168" width="7" height="11" rx="1" fill="#48bfe3" transform="rotate(-6 89 173)"/></g><path d="M316 270 L336 248 L356 270 Z" fill="#c46b4a"/><rect x="322" y="270" width="28" height="24" fill="#f6ead8"/><rect x="332" y="276" width="8" height="8" fill="#ffd56a"/><path d="M0 304 C42 276 82 314 132 292 C176 274 198 290 232 284 C276 276 304 310 352 290 C376 280 390 296 400 288 V400 H0Z" fill="url(#hill)"/><ellipse cx="206" cy="300" rx="30" ry="5" fill="#234232" opacity=".22"/><g transform="translate(206,156)"><ellipse cx="2" cy="48" rx="54" ry="78" fill="url(#aura)"/><circle r="28" fill="none" stroke="#ffe8a3" stroke-width="1" opacity=".45"/><path d="M-16 28 Q-30 78 -20 136 Q2 122 24 138 Q32 76 16 28 Q0 42 -16 28Z" fill="#fffaf2" fill-opacity=".92" stroke="#f0d9a0"/><path d="M0 42 Q-3 90 2 122" fill="none" stroke="#f0d9a0" stroke-width=".8"/><path d="M-12 34 Q-46 18 -92 36" fill="none" stroke="#fffaf2" stroke-width="4" stroke-linecap="round"/><path d="M14 32 Q48 14 88 26" fill="none" stroke="#fffaf2" stroke-width="4" stroke-linecap="round"/><circle cx="-94" cy="37" r="4" fill="#fffaf2" stroke="#f0d9a0"/><circle cx="90" cy="27" r="4" fill="#fffaf2" stroke="#f0d9a0"/><circle cx="0" cy="64" r="7" fill="none" stroke="#fffef8" stroke-width="1.6"/><circle cx="0" cy="64" r="2.1" fill="#fffef8"/><circle r="16" fill="#fffaf0" stroke="#f0d9a0"/><circle cx="-5" cy="-2" r="1.5" fill="#4a3b2a"/><circle cx="5" cy="-2" r="1.5" fill="#4a3b2a"/><circle cx="-6.2" cy="-3.2" r=".5" fill="#fff"/><circle cx="3.8" cy="-3.2" r=".5" fill="#fff"/><path d="M-5 5 Q0 9 5 5" fill="none" stroke="#c4a574" stroke-width="1" stroke-linecap="round"/><g fill="#ffe8a3"><circle cx="-14" cy="30" r="1.5"/><circle cx="14" cy="30" r="1.5"/><circle cx="0" cy="100" r="1.6"/><circle cx="-16" cy="132" r="1.4"/><circle cx="18" cy="134" r="1.4"/></g></g><path d="M112 193 Q150 230 188 292" fill="none" stroke="#ffe8a3" stroke-width="1" opacity=".7"/><path d="M296 183 Q330 214 336 270" fill="none" stroke="#ffe8a3" stroke-width="1" opacity=".55"/><g transform="translate(188,292)"><path d="M-18 2 Q-9 -5 0 2 Q9 -5 18 2 L18 11 Q9 6 0 11 Q-9 6 -18 11Z" fill="#fffaf2" stroke="#e7c98a" stroke-width=".8"/><path d="M0 2 V11" stroke="#e7c98a" stroke-width=".8"/><path d="M-12 5 H-4 M-12 8 H-5 M5 5 H12 M5 8 H11" stroke="#e7c98a" stroke-width=".5"/></g><g transform="translate(214,298)"><path d="M0 10 V1" stroke="#2d6a4f" stroke-width="1"/><circle cy="0" r="2.2" fill="#95d5b2"/></g><path d="M0 348 C70 332 112 364 180 348 C250 332 304 360 400 342 V400 H0Z" fill="url(#near)"/><path d="M0 356 C60 340 100 372 160 358 S250 374 320 356 400 368 400 368" fill="none" stroke="#8ecae6" stroke-width="8" stroke-linecap="round"/><path d="M0 356 C60 340 100 372 160 358 S250 374 320 356 400 368 400 368" fill="none" stroke="#f3fbfe" stroke-width="1.5" stroke-linecap="round" opacity=".7"/><path d="M300 362 Q332 370 362 358" fill="none" stroke="#fff3c4" stroke-width="2" opacity=".45"/><path d="M46 356 L54 364 L62 356 L54 351 Z" fill="#fffaf2"/><ellipse cx="176" cy="328" rx="62" ry="8" fill="#e07a5f" opacity=".18"/><g transform="translate(124,314)"><circle cy="-18" r="5.5" fill="#8d5524"/><path d="M-9 -10 Q0 4 9 -10 L7 10 H-7 Z" fill="#e07a5f"/><path d="M-7 10 Q0 16 7 10" fill="#3d5a40"/><rect x="-8" y="-4" width="8" height="5" rx=".5" fill="#fffaf2" transform="rotate(-16 -4 -1)"/></g><g transform="translate(248,316)"><circle cy="-18" r="5.5" fill="#f1c27d"/><path d="M-9 -10 Q0 4 9 -10 L7 10 H-7 Z" fill="#2a9d8f"/><path d="M-7 10 Q0 16 7 10" fill="#3d5a40"/><rect x="1" y="-5" width="8" height="5" rx=".5" fill="#fffaf2" transform="rotate(14 5 -2)"/></g><g transform="translate(176,326)"><circle cy="-12" r="4.2" fill="#c68642"/><path d="M-6 -6 Q0 3 6 -6 L5 7 H-5 Z" fill="#f4a261"/><circle cx="9" cy="1" r="2.2" fill="#e85d75"/><path d="M9 3 V9" stroke="#2d6a4f" stroke-width="1"/></g><g transform="translate(96,324)"><ellipse cx="0" cy="2" rx="9" ry="4.2" fill="#d4b483"/><circle cx="8" cy="-1" r="3.6" fill="#d4b483"/><path d="M-8 2 Q-16 -4 -11 1" fill="none" stroke="#d4b483" stroke-width="1.5" stroke-linecap="round"/><circle cx="9.2" cy="-1.6" r=".55" fill="#3d3428"/><path d="M6 -4 L7 -6 M10 -4 L11 -6" stroke="#d4b483" stroke-width=".8"/></g><g stroke="#2d6a4f" stroke-width="1" stroke-linecap="round"><path d="M146 330 V340"/><path d="M204 328 V338"/><path d="M228 332 V342"/><path d="M292 322 V332"/></g><g><circle cx="146" cy="328" r="2.2" fill="#e85d75"/><circle cx="204" cy="326" r="2" fill="#f4d35e"/><circle cx="228" cy="330" r="2.1" fill="#fff"/><circle cx="292" cy="320" r="2.2" fill="#9b5de5"/></g><g fill="#fff4c2"><circle cx="52" cy="292" r="1.2" opacity=".8"/><circle cx="160" cy="268" r="1" opacity=".55"/><circle cx="274" cy="258" r="1.3" opacity=".7"/><circle cx="78" cy="246" r=".9" opacity=".5"/><circle cx="366" cy="286" r="1.1" opacity=".65"/><circle cx="196" cy="246" r="1" opacity=".45"/></g></svg>