<svg viewBox="0 0 400 400" xmlns="http://www.w3.org/2000/svg">
<defs>
<linearGradient id="sky" x1="0" y1="0" x2="0" y2="1">
<stop offset="0" stop-color="#1d1147"/><stop offset=".42" stop-color="#7a3a79"/>
<stop offset=".7" stop-color="#e2705c"/><stop offset="1" stop-color="#ffc681"/>
</linearGradient>
<radialGradient id="glow"><stop offset="0" stop-color="#fff3cc" stop-opacity=".95"/><stop offset="1" stop-color="#ffab5e" stop-opacity="0"/></radialGradient>
<linearGradient id="rock" x1="0" y1="0" x2="0" y2="1"><stop offset="0" stop-color="#553363"/><stop offset="1" stop-color="#170d2b"/></linearGradient>
<linearGradient id="mist" x1="0" y1="0" x2="0" y2="1"><stop offset="0" stop-color="#ffd9a8" stop-opacity="0"/><stop offset="1" stop-color="#ffd7a4" stop-opacity=".9"/></linearGradient>
<radialGradient id="lamp"><stop offset="0" stop-color="#fff6d0"/><stop offset="1" stop-color="#ffd27a" stop-opacity="0"/></radialGradient>
</defs>

<rect width="400" height="400" fill="url(#sky)"/>
<g fill="#fff" opacity=".8">
<circle cx="35" cy="28" r="1.2"/><circle cx="78" cy="55" r="1"/><circle cx="130" cy="22" r="1.4"/>
<circle cx="196" cy="45" r="1"/><circle cx="250" cy="20" r="1.2"/><circle cx="312" cy="48" r="1"/>
<circle cx="360" cy="26" r="1.3"/><circle cx="170" cy="80" r=".9"/><circle cx="290" cy="90" r=".9"/>
</g>

<circle cx="200" cy="292" r="150" fill="url(#glow)"/>
<circle cx="200" cy="292" r="33" fill="#fff0bf" opacity=".92"/>

<path d="M0 250 L48 196 L92 236 L130 200 L168 244 L205 208 L250 248 L292 206 L336 242 L400 198 L400 300 L0 300 Z" fill="#5b2f66" opacity=".55"/>
<path d="M0 268 L60 228 L112 262 L158 232 L212 266 L268 234 L322 268 L400 236 L400 320 L0 320 Z" fill="#43244f" opacity=".5"/>

<path d="M0 400 L0 176 L28 192 L56 202 L72 224 L80 262 L66 400 Z" fill="url(#rock)"/>
<path d="M20 200 L44 212 L56 236 L40 260 L18 244 Z" fill="#6b4076" opacity=".35"/>

<path d="M305 236 L400 228 L400 262 L372 286 L338 296 L312 272 L300 250 Z" fill="url(#rock)"/>
<path d="M330 296 L350 320 L362 300 L376 318 L368 286 Z" fill="#2a1840"/>
<g stroke="#2a1840" stroke-width="2.5" fill="none">
<path d="M352 234 L352 214"/><path d="M352 222 L344 212"/><path d="M352 220 L360 210"/>
</g>
<circle cx="348" cy="210" r="6" fill="#3a2352"/><circle cx="358" cy="207" r="5" fill="#33204a"/>

<g stroke="#1f1235" stroke-width="3" fill="none">
<path d="M40 198 C75 165 105 125 120 92"/>
<path d="M120 92 C160 150 245 150 285 92"/>
<path d="M285 92 C300 125 330 165 365 198"/>
</g>
<g stroke="#1f1235" stroke-width="1.6" opacity=".95">
<line x1="60" y1="185" x2="60" y2="230"/><line x1="80" y1="167" x2="80" y2="230"/>
<line x1="100" y1="140" x2="100" y2="230"/><line x1="140" y1="115" x2="140" y2="230"/>
<line x1="160" y1="128" x2="160" y2="230"/><line x1="180" y1="136" x2="180" y2="230"/>
<line x1="202" y1="139" x2="202" y2="230"/><line x1="224" y1="136" x2="224" y2="230"/>
<line x1="244" y1="128" x2="244" y2="230"/><line x1="264" y1="114" x2="264" y2="230"/>
<line x1="305" y1="140" x2="305" y2="230"/><line x1="325" y1="167" x2="325" y2="230"/>
<line x1="345" y1="185" x2="345" y2="230"/>
</g>

<g fill="#241539">
<path d="M112 240 L112 84 Q120 74 128 84 L128 240 Z"/>
<path d="M277 240 L277 84 Q285 74 293 84 L293 240 Z"/>
</g>
<g fill="#3b2456">
<rect x="108" y="126" width="24" height="7" rx="2"/><rect x="108" y="168" width="24" height="7" rx="2"/>
<rect x="273" y="126" width="24" height="7" rx="2"/><rect x="273" y="168" width="24" height="7" rx="2"/>
</g>
<g fill="#e7745f">
<path d="M128 80 L152 88 L128 96 Z"/><path d="M293 80 L317 88 L293 96 Z"/>
</g>

<path d="M36 226 L368 226 L368 236 L36 236 Z" fill="#2c1a42"/>
<path d="M36 236 L368 236 L360 242 L44 242 Z" fill="#1a0f2c"/>
<g stroke="#4a2c66" stroke-width="1.4">
<line x1="40" y1="220" x2="368" y2="220"/>
<line x1="52" y1="220" x2="52" y2="228"/><line x1="90" y1="220" x2="90" y2="228"/>
<line x1="150" y1="220" x2="150" y2="228"/><line x1="200" y1="220" x2="200" y2="228"/>
<line x1="250" y1="220" x2="250" y2="228"/><line x1="312" y1="220" x2="312" y2="228"/>
<line x1="350" y1="220" x2="350" y2="228"/>
</g>

<g fill="#2c1a42">
<path d="M165 242 q35 34 70 0 v6 q-35 36 -70 0 Z" opacity=".9"/>
<rect x="196" y="242" width="9" height="42" rx="3"/>
<path d="M188 284 q12 14 24 0 l-4 16 h-16 Z" opacity=".75"/>
</g>

<g>
<circle cx="70" cy="216" r="7" fill="url(#lamp)"/><circle cx="70" cy="216" r="1.8" fill="#fff4d2"/>
<circle cx="120" cy="212" r="8" fill="url(#lamp)"/><circle cx="120" cy="212" r="2" fill="#fff4d2"/>
<circle cx="200" cy="214" r="9" fill="url(#lamp)"/><circle cx="200" cy="214" r="2.2" fill="#fff4d2"/>
<circle cx="285" cy="212" r="8" fill="url(#lamp)"/><circle cx="285" cy="212" r="2" fill="#fff4d2"/>
<circle cx="336" cy="216" r="7" fill="url(#lamp)"/><circle cx="336" cy="216" r="1.8" fill="#fff4d2"/>
<circle cx="120" cy="84" r="7" fill="url(#lamp)"/><circle cx="285" cy="84" r="7" fill="url(#lamp)"/>
</g>

<rect x="0" y="262" width="400" height="138" fill="url(#mist)"/>
<path d="M0 330 q60 -22 120 -4 t120 -2 q60 -16 160 2 v74 H0 Z" fill="#ffe0b4" opacity=".55"/>
<path d="M0 362 q80 -18 160 0 t240 -4 v42 H0 Z" fill="#fff0d2" opacity=".7"/>

<g fill="none" stroke="#2b1a40" stroke-width="1.6" opacity=".8">
<path d="M64 108 q6 -6 12 0 q6 -6 12 0"/>
<path d="M318 132 q5 -5 10 0 q5 -5 10 0"/>
<path d="M232 68 q4 -4 8 0 q4 -4 8 0"/>
</g>
</svg>