<svg xmlns="http://www.w3.org/2000/svg" viewBox="0 0 400 400">
  <rect width="400" height="400" fill="#f5e6d3"/>
  <ellipse cx="200" cy="370" rx="130" ry="12" fill="#d4b896" opacity="0.6"/>
  <path d="M 290 310 Q 350 290 355 220 Q 358 195 345 185" stroke="#8b6f47" stroke-width="20" stroke-linecap="round" fill="none"/>
  <path d="M 345 185 Q 365 175 358 200" stroke="#6b5437" stroke-width="14" stroke-linecap="round" fill="none"/>
  <ellipse cx="200" cy="290" rx="85" ry="68" fill="#b08660"/>
  <ellipse cx="160" cy="345" rx="22" ry="18" fill="#8b6f47"/>
  <ellipse cx="240" cy="345" rx="22" ry="18" fill="#8b6f47"/>
  <ellipse cx="170" cy="340" rx="18" ry="22" fill="#b08660"/>
  <ellipse cx="230" cy="340" rx="18" ry="22" fill="#b08660"/>
  <ellipse cx="170" cy="360" rx="16" ry="6" fill="#6b5437"/>
  <ellipse cx="230" cy="360" rx="16" ry="6" fill="#6b5437"/>
  <ellipse cx="160" cy="358" rx="16" ry="6" fill="#6b5437"/>
  <ellipse cx="240" cy="358" rx="16" ry="6" fill="#6b5437"/>
  <ellipse cx="200" cy="150" rx="80" ry="72" fill="#b08660"/>
  <path d="M 135 120 L 115 55 L 170 95 Z" fill="#b08660"/>
  <path d="M 265 120 L 285 55 L 230 95 Z" fill="#b08660"/>
  <path d="M 140 110 L 125 70 L 160 100 Z" fill="#d4a890"/>
  <path d="M 260 110 L 275 70 L 240 100 Z" fill="#d4a890"/>
  <ellipse cx="170" cy="155" rx="14" ry="18" fill="#90c5e8"/>
  <ellipse cx="230" cy="155" rx="14" ry="18" fill="#90c5e8"/>
  <ellipse cx="170" cy="158" rx="6" ry="14" fill="#2a2418"/>
  <ellipse cx="230" cy="158" rx="6" ry="14" fill="#2a2418"/>
  <ellipse cx="172" cy="152" rx="2" ry="3" fill="#ffffff"/>
  <ellipse cx="232" cy="152" rx="2" ry="3" fill="#ffffff"/>
  <path d="M 192 182 L 208 182 L 200 195 Z" fill="#d678a8"/>
  <path d="M 200 195 L 200 208" stroke="#8b4a6b" stroke-width="2" fill="none"/>
  <path d="M 200 208 Q 188 218 178 205" stroke="#8b4a6b" stroke-width="2" fill="none"/>
  <path d="M 200 208 Q 212 218 222 205" stroke="#8b4a6b" stroke-width="2" fill="none"/>
  <line x1="155" y1="195" x2="90" y2="180" stroke="#3a2c1a" stroke-width="1.5"/>
  <line x1="155" y1="202" x2="85" y2="205" stroke="#3a2c1a" stroke-width="1.5"/>
  <line x1="155" y1="210" x2="90" y2="230" stroke="#3a2c1a" stroke-width="1.5"/>
  <line x1="245" y1="195" x2="310" y2="180" stroke="#3a2c1a" stroke-width="1.5"/>
  <line x1="245" y1="202" x2="315" y2="205" stroke="#3a2c1a" stroke-width="1.5"/>
  <line x1="245" y1="210" x2="310" y2="230" stroke="#3a2c1a" stroke-width="1.5"/>
  <path d="M 155 100 Q 170 110 160 125" stroke="#6b5437" stroke-width="3" fill="none" stroke-linecap="round"/>
  <path d="M 200 92 Q 215 110 200 128" stroke="#6b5437" stroke-width="3" fill="none" stroke-linecap="round"/>
  <path d="M 245 100 Q 230 110 240 125" stroke="#6b5437" stroke-width="3" fill="none" stroke-linecap="round"/>
  <path d="M 140 240 Q 165 255 140 275" stroke="#6b5437" stroke-width="4" fill="none" stroke-linecap="round"/>
  <path d="M 200 235 Q 220 260 200 285" stroke="#6b5437" stroke-width="4" fill="none" stroke-linecap="round"/>
  <path d="M 260 240 Q 235 255 260 275" stroke="#6b5437" stroke-width="4" fill="none" stroke-linecap="round"/>
  <circle cx="100" cy="80" r="2" fill="#ffffff"/>
  <circle cx="300" cy="60" r="2" fill="#ffffff"/>
  <circle cx="350" cy="100" r="2" fill="#ffffff"/>
</svg>