<svg xmlns="http://www.w3.org/2000/svg" viewBox="0 0 400 400">
<defs>
<linearGradient id="sky" x1="0" y1="0" x2="0" y2="1">
<stop offset="0" stop-color="#4e97e6"/>
<stop offset=".5" stop-color="#b7dcff"/>
<stop offset="1" stop-color="#ffe6c2"/>
</linearGradient>
<radialGradient id="glow" cx="50%" cy="50%" r="50%">
<stop offset="0" stop-color="#fff6c8"/>
<stop offset=".42" stop-color="#ffd15c"/>
<stop offset="1" stop-color="#ffd15c" stop-opacity="0"/>
</radialGradient>
<linearGradient id="mt" x1="0" y1="0" x2="0" y2="1">
<stop offset="0" stop-color="#d5e3ee"/>
<stop offset="1" stop-color="#8eabbf"/>
</linearGradient>
<linearGradient id="hill" x1="0" y1="0" x2="0" y2="1">
<stop offset="0" stop-color="#8ed17a"/>
<stop offset="1" stop-color="#3f9a56"/>
</linearGradient>
<linearGradient id="mead" x1="0" y1="0" x2="0" y2="1">
<stop offset="0" stop-color="#5cb85c"/>
<stop offset="1" stop-color="#2d7a40"/>
</linearGradient>
<linearGradient id="water" x1="0" y1="0" x2="1" y2="0">
<stop offset="0" stop-color="#6ec4e0"/>
<stop offset=".5" stop-color="#e7f8ff"/>
<stop offset="1" stop-color="#4eabc8"/>
</linearGradient>
</defs>
<title>Un mundo para todos</title>
<rect width="400" height="400" fill="url(#sky)"/>
<circle cx="308" cy="64" r="74" fill="url(#glow)"/>
<g transform="translate(308,64)" stroke="#ffe7a8" stroke-width="3" stroke-linecap="round" opacity=".7">
<line y1="-38" y2="-54"/><line y1="-38" y2="-54" transform="rotate(45)"/>
<line y1="-38" y2="-54" transform="rotate(90)"/><line y1="-38" y2="-54" transform="rotate(135)"/>
<line y1="-38" y2="-54" transform="rotate(180)"/><line y1="-38" y2="-54" transform="rotate(225)"/>
<line y1="-38" y2="-54" transform="rotate(270)"/><line y1="-38" y2="-54" transform="rotate(315)"/>
</g>
<circle cx="308" cy="64" r="26" fill="#ffe56a"/>
<g fill="#fff">
<ellipse cx="62" cy="52" rx="26" ry="13"/><ellipse cx="84" cy="48" rx="18" ry="11"/><ellipse cx="44" cy="50" rx="15" ry="9"/>
<ellipse cx="168" cy="38" rx="20" ry="10"/><ellipse cx="186" cy="42" rx="14" ry="8"/>
<ellipse cx="250" cy="96" rx="16" ry="8" opacity=".85"/>
</g>
<g fill="none" stroke-width="5" opacity=".28" stroke-linecap="round">
<path d="M28 196 A172 120 0 0 1 372 188" stroke="#ff8d8d"/>
<path d="M36 198 A164 114 0 0 1 364 190" stroke="#ffc36b"/>
<path d="M44 200 A156 108 0 0 1 356 192" stroke="#ffe56a"/>
<path d="M52 202 A148 102 0 0 1 348 194" stroke="#8ed17a"/>
<path d="M60 204 A140 96 0 0 1 340 196" stroke="#7eb6ff"/>
<path d="M68 206 A132 90 0 0 1 332 198" stroke="#c3b0f0"/>
</g>
<g fill="none" stroke="#3d4c5e" stroke-width="1.6" stroke-linecap="round">
<path d="M118 86 q6 -6 12 0 q6 -6 12 0"/>
<path d="M146 68 q5 -5 9 0 q5 -5 9 0"/>
<path d="M34 96 q4 -4 8 0 q4 -4 8 0"/>
</g>
<path d="M246 74 q12 -8 24 0 q-8 2 -12 7 q-4 -5 -12 -7z" fill="#fff"/>
<path d="M0 196 L48 146 L82 182 L116 128 L156 180 L196 136 L236 182 L274 122 L316 170 L352 114 L400 164 L400 226 L0 226 Z" fill="url(#mt)"/>
<polygon points="116,128 108,142 124,142" fill="#fff" opacity=".9"/>
<polygon points="274,122 265,138 283,138" fill="#fff" opacity=".9"/>
<polygon points="352,114 344,130 360,130" fill="#fff" opacity=".85"/>
<g stroke="#e7eef3" stroke-width="2" stroke-linecap="round">
<line x1="338" y1="150" x2="338" y2="186"/>
<line x1="338" y1="154" x2="338" y2="136"/>
<line x1="338" y1="154" x2="324" y2="164"/>
<line x1="338" y1="154" x2="352" y2="164"/>
<circle cx="338" cy="154" r="2" fill="#e7eef3"/>
</g>
<path d="M0 214 C70 168 110 206 160 176 C214 146 250 198 310 168 C352 148 378 184 400 170 L400 268 L0 268 Z" fill="url(#hill)"/>
<rect x="34" y="184" width="34" height="24" rx="1" fill="#f4e2c8"/>
<polygon points="28,188 51,164 80,188" fill="#d4654a"/>
<rect x="46" y="194" width="10" height="14" fill="#6b442c"/>
<rect x="38" y="192" width="8" height="7" fill="#ffe7a0"/>
<rect x="92" y="192" width="30" height="22" fill="#f7d7c4"/>
<polygon points="86,196 107,174 128,196" fill="#c45c44"/>
<rect x="102" y="200" width="10" height="14" fill="#6b442c"/>
<rect x="94" y="198" width="7" height="6" fill="#9fd7ef"/>
<path d="M30 186 Q92 170 136 196" fill="none" stroke="#6b5344" stroke-width="1"/>
<g>
<circle cx="46" cy="180" r="3" fill="#ffd15c"/><circle cx="66" cy="174" r="3" fill="#ff8fab"/>
<circle cx="86" cy="176" r="3" fill="#7ec8e3"/><circle cx="108" cy="182" r="3" fill="#c9b6ff"/>
<circle cx="126" cy="192" r="3" fill="#ffd15c"/>
</g>
<rect x="226" y="176" width="42" height="22" fill="#f3dcc4"/>
<rect x="226" y="170" width="42" height="7" fill="#3e9a52"/>
<circle cx="236" cy="173" r="2" fill="#246b36"/><circle cx="248" cy="173" r="2" fill="#246b36"/><circle cx="260" cy="173" r="2" fill="#246b36"/>
<rect x="248" y="160" width="14" height="8" fill="#2f5f8a"/>
<line x1="255" y1="160" x2="255" y2="168" stroke="#d5e6f2"/>
<rect x="232" y="182" width="8" height="7" fill="#ffe7a0"/>
<rect x="252" y="184" width="8" height="14" fill="#6b442c"/>
<path d="M0 292 C70 262 120 300 168 286 C200 276 230 300 280 286 C330 272 360 300 400 278 L400 400 L0 400 Z" fill="url(#mead)"/>
<path d="M176 206 C202 232 148 250 172 280 C198 312 154 342 180 400 L214 400 C188 338 234 308 210 274 C186 240 232 220 204 206 Z" fill="url(#water)"/>
<path d="M188 224 C200 250 178 268 192 296 C204 320 184 348 196 390" fill="none" stroke="#fff" stroke-width="3" opacity=".4" stroke-linecap="round"/>
<g fill="#f7fbff" opacity=".85">
<ellipse cx="190" cy="300" rx="5" ry="2.4"/><path d="M195 300 l4 -2 -1 2 1 2 z"/>
<ellipse cx="198" cy="336" rx="4" ry="2"/><path d="M202 336 l3 -1.5 -1 1.5 1 1.5 z"/>
</g>
<polygon points="186,268 196,274 186,274" fill="#fff8ec"/>
<g stroke="#246b36" stroke-width="1.4" fill="none" stroke-linecap="round">
<path d="M160 312 q2 -12 0 -18"/><path d="M166 316 q3 -12 0 -20"/><path d="M222 324 q-2 -12 1 -18"/>
</g>
<path d="M140 262 C172 244 198 244 228 262 L228 270 C198 252 172 252 140 270 Z" fill="#e0bc84"/>
<path d="M140 262 C172 244 198 244 228 262" fill="none" stroke="#8a6240" stroke-width="2.2"/>
<path d="M140 270 C172 252 198 252 228 270" fill="none" stroke="#8a6240" stroke-width="1.6"/>
<g stroke="#8a6240" stroke-width="1.5">
<line x1="156" y1="256" x2="156" y2="266"/><line x1="178" y1="250" x2="178" y2="260"/>
<line x1="198" y1="250" x2="198" y2="260"/><line x1="216" y1="256" x2="216" y2="266"/>
</g>
<g transform="translate(166,248) scale(.58)">
<ellipse cx="0" cy="-27" rx="7" ry="4" fill="#2b2118"/>
<circle cx="0" cy="-23" r="6.2" fill="#8d5524"/>
<rect x="-6" y="-17" width="12" height="15" rx="4" fill="#e07a5f"/>
<rect x="-6" y="-3" width="5" height="12" rx="2" fill="#2c3e50"/>
<rect x="1" y="-3" width="5" height="12" rx="2" fill="#2c3e50"/>
</g>
<g transform="translate(196,246) scale(.58)">
<ellipse cx="0" cy="-27" rx="7" ry="4.2" fill="#1a1a1a"/>
<circle cx="0" cy="-23" r="6.2" fill="#f1c7a0"/>
<rect x="-6.5" y="-17" width="13" height="16" rx="5" fill="#7c6bc4"/>
<rect x="-5" y="-2" width="4.5" height="11" rx="2" fill="#7c6bc4"/>
<rect x="1" y="-2" width="4.5" height="11" rx="2" fill="#7c6bc4"/>
</g>
<rect x="12" y="268" width="8" height="42" fill="#6b442c"/>
<circle cx="16" cy="252" r="16" fill="#2f8a45"/><circle cx="26" cy="260" r="12" fill="#3eaf55"/><circle cx="8" cy="262" r="11" fill="#246b36"/>
<rect x="312" y="250" width="13" height="78" rx="2" fill="#6b442c"/>
<circle cx="300" cy="232" r="28" fill="#2f8a45"/><circle cx="330" cy="214" r="32" fill="#3eaf55"/>
<circle cx="348" cy="238" r="22" fill="#257a3c"/><circle cx="316" cy="202" r="20" fill="#69b85a"/>
<circle cx="308" cy="226" r="3.2" fill="#f2c14e"/><circle cx="336" cy="230" r="3" fill="#e07a5f"/><circle cx="322" cy="248" r="3" fill="#f2c14e"/>
<rect x="262" y="312" width="52" height="5" rx="1" fill="#a67c52"/>
<rect x="266" y="316" width="4" height="10" fill="#8a6240"/><rect x="306" y="316" width="4" height="10" fill="#8a6240"/>
<g transform="translate(274,306)">
<ellipse cx="0" cy="-30" rx="6.5" ry="4" fill="#1a1a1a"/>
<circle cx="0" cy="-26" r="6" fill="#c68642"/>
<rect x="-6.5" y="-20" width="13" height="13" rx="4" fill="#3d6b99"/>
<path d="M-5 -8 q-8 3 -12 9" stroke="#c68642" stroke-width="3" fill="none" stroke-linecap="round"/>
<path d="M5 -8 q8 2 12 8" stroke="#c68642" stroke-width="3" fill="none" stroke-linecap="round"/>
</g>
<g transform="translate(300,308)">
<path d="M-8 -30 q1 -12 8 -12 q7 0 8 12 v12 h-18 z" fill="#1d6f8a"/>
<circle cx="0" cy="-24" r="5.6" fill="#f6d7b0"/>
<rect x="-7" y="-18" width="14" height="12" rx="4" fill="#e85d75"/>
<path d="M-6 -8 q-6 4 -8 10" stroke="#f6d7b0" stroke-width="3" fill="none" stroke-linecap="round"/>
<path d="M6 -8 q8 2 10 8" stroke="#f6d7b0" stroke-width="3" fill="none" stroke-linecap="round"/>
</g>
<g transform="translate(292,294)">
<rect width="14" height="9" rx="1" fill="#fff8ec" stroke="#c4a574" stroke-width=".7"/>
<line x1="7" y1="0" x2="7" y2="9" stroke="#c4a574" stroke-width=".7"/>
</g>
<g transform="translate(48,324)">
<ellipse cx="0" cy="-28" rx="7" ry="4.2" fill="#1a1a1a"/>
<circle cx="0" cy="-23" r="6.4" fill="#3d2314"/>
<rect x="-6.5" y="-17" width="13" height="16" rx="4" fill="#e07a5f"/>
<rect x="-6" y="-2" width="5" height="13" rx="2" fill="#2c3e50"/>
<rect x="1" y="-2" width="5" height="13" rx="2" fill="#2c3e50"/>
<path d="M6 -12 q8 2 12 6" stroke="#3d2314" stroke-width="2.6" fill="none" stroke-linecap="round"/>
</g>
<g transform="translate(78,320)">
<path d="M-8 -32 q1 -11 8 -11 q7 0 8 12 l1 8 h-18 z" fill="#c45c44"/>
<circle cx="0" cy="-24" r="5.8" fill="#e0ac7a"/>
<rect x="-7" y="-18" width="14" height="18" rx="5" fill="#f2c14e"/>
<path d="M-7 -12 q-8 3 -10 8" stroke="#e0ac7a" stroke-width="2.6" fill="none" stroke-linecap="round"/>
<path d="M7 -12 q6 2 8 7" stroke="#e0ac7a" stroke-width="2.6" fill="none" stroke-linecap="round"/>
</g>
<g transform="translate(104,336) scale(.72)">
<ellipse cx="0" cy="-26" rx="7" ry="4" fill="#5c3317"/>
<circle cx="0" cy="-22" r="6" fill="#f1c7a0"/>
<rect x="-6" y="-16" width="12" height="14" rx="4" fill="#2a9d8f"/>
<rect x="-5" y="-3" width="4.5" height="11" rx="2" fill="#355c7d"/>
<rect x="1" y="-3" width="4.5" height="11" rx="2" fill="#355c7d"/>
<path d="M6 -12 q8 -6 14 -16" stroke="#f1c7a0" stroke-width="2.4" fill="none" stroke-linecap="round"/>
</g>
<polygon points="128,246 138,258 128,272 118,258" fill="#e85d75"/>
<line x1="128" y1="272" x2="114" y2="324" stroke="#8a7560" stroke-width=".7"/>
<path d="M128 258 l6 4 -6 4 -6 -4 z" fill="#ffd1dc"/>
<g transform="translate(136,332)">
<circle cx="-9" cy="7" r="8" fill="none" stroke="#3d4a5c" stroke-width="1.8"/>
<circle cx="9" cy="7" r="8" fill="none" stroke="#3d4a5c" stroke-width="1.8"/>
<circle cx="-9" cy="7" r="1.5" fill="#3d4a5c"/><circle cx="9" cy="7" r="1.5" fill="#3d4a5c"/>
<path d="M-9 7 L-2 -2 H12" fill="none" stroke="#3d4a5c" stroke-width="1.8" stroke-linejoin="round"/>
<rect x="-1" y="-11" width="14" height="10" rx="2" fill="#2a9d8f"/>
<circle cx="8" cy="-19" r="6" fill="#f6d7b0"/>
<ellipse cx="8" cy="-23" rx="6.4" ry="3.4" fill="#6b442c"/>
<path d="M12 -8 q6 2 7 6" stroke="#f6d7b0" stroke-width="2.4" fill="none" stroke-linecap="round"/>
</g>
<g transform="translate(352,312)">
<ellipse cx="0" cy="-26" rx="6.5" ry="4" fill="#2b2118"/>
<circle cx="0" cy="-22" r="6" fill="#8d5524"/>
<rect x="-6" y="-16" width="12" height="15" rx="4" fill="#7c6bc4"/>
<rect x="-5.5" y="-2" width="4.5" height="12" rx="2" fill="#2c3e50"/>
<rect x="1" y="-2" width="4.5" height="12" rx="2" fill="#2c3e50"/>
<path d="M5 -10 q6 6 4 12" stroke="#8d5524" stroke-width="2.4" fill="none" stroke-linecap="round"/>
</g>
<rect x="344" y="300" width="26" height="14" rx="2" fill="#8b5a2b"/>
<circle cx="350" cy="306" r="2.2" fill="#3eaf55"/><circle cx="357" cy="308" r="2.2" fill="#69b85a"/><circle cx="364" cy="305" r="2.2" fill="#2f8a45"/>
<g transform="translate(176,348)" fill="#c47a3a">
<ellipse cx="0" cy="0" rx="11" ry="5.5"/>
<circle cx="9" cy="-3" r="4.2"/>
<circle cx="12" cy="-6" r="1.6" fill="#f1c7a0"/>
<path d="M-9 0 q-8 -4 -6 3" stroke="#c47a3a" stroke-width="2" fill="none"/>
<circle cx="11" cy="-4" r=".6" fill="#2b2118"/>
</g>
<g transform="translate(18,338)" fill="none" stroke="#3d4a5c" stroke-width="1.6" stroke-linecap="round">
<circle cx="0" cy="0" r="6"/><circle cx="16" cy="0" r="6"/>
<path d="M0 0 L8 -8 L16 0 M8 -8 L9 -13"/>
</g>
<g stroke="#1f6b38" stroke-width="1.4" stroke-linecap="round">
<line x1="22" y1="392" x2="22" y2="372"/><circle cx="22" cy="370" r="3.2" fill="#ff7aa2" stroke="none"/>
<line x1="40" y1="396" x2="40" y2="376"/><circle cx="40" cy="374" r="3" fill="#ffe56a" stroke="none"/>
<line x1="58" y1="390" x2="58" y2="372"/><circle cx="58" cy="370" r="3.1" fill="#fff" stroke="none"/>
<line x1="232" y1="394" x2="232" y2="374"/><circle cx="232" cy="372" r="3.2" fill="#c9b6ff" stroke="none"/>
<line x1="250" y1="398" x2="250" y2="378"/><circle cx="250" cy="376" r="3" fill="#ff8fab" stroke="none"/>
<line x1="372" y1="392" x2="372" y2="372"/><circle cx="372" cy="370" r="3.2" fill="#ffe56a" stroke="none"/>
<line x1="388" y1="386" x2="388" y2="368"/><circle cx="388" cy="366" r="3" fill="#ff7aa2" stroke="none"/>
</g>
<g fill="#246b36" opacity=".55">
<ellipse cx="30" cy="386" rx="10" ry="3"/><ellipse cx="70" cy="382" rx="12" ry="3"/>
<ellipse cx="210" cy="388" rx="14" ry="3.2"/><ellipse cx="360" cy="384" rx="12" ry="3"/>
</g>
</svg>