<svg xmlns="http://www.w3.org/2000/svg" viewBox="0 0 400 400">
<defs>
<linearGradient id="noche" x1="0" y1="0" x2="0" y2="1">
<stop offset="0" stop-color="#0d1730"/><stop offset="1" stop-color="#26355a"/>
</linearGradient>
<radialGradient id="halo" cx="0.5" cy="0.5" r="0.5">
<stop offset="0" stop-color="#f6d98a" stop-opacity="0.55"/><stop offset="1" stop-color="#f6d98a" stop-opacity="0"/>
</radialGradient>
</defs>
<rect width="400" height="400" fill="url(#noche)"/>
<circle cx="40" cy="40" r="1.2" fill="#e8e6d8"/>
<circle cx="95" cy="70" r="0.9" fill="#e8e6d8"/>
<circle cx="180" cy="30" r="1.1" fill="#e8e6d8"/>
<circle cx="240" cy="80" r="0.8" fill="#e8e6d8"/>
<circle cx="330" cy="40" r="1.3" fill="#e8e6d8"/>
<circle cx="372" cy="90" r="0.9" fill="#e8e6d8"/>
<circle cx="150" cy="95" r="0.7" fill="#e8e6d8"/>
<rect y="230" width="400" height="170" fill="#3b3a44"/>
<rect y="230" width="400" height="6" fill="#30303a"/>
<path d="M0 236 L120 236 L135 262 L0 262 Z" fill="#33432e"/>
<path d="M0 262 L135 262 L110 300 L0 300 Z" fill="#374832"/>
<rect x="2" y="203" width="40" height="27" fill="#1e2740"/>
<polygon points="0,203 22,190 44,203" fill="#1a2238"/>
<rect x="48" y="208" width="34" height="22" fill="#1e2740"/>
<polygon points="46,208 65,197 84,208" fill="#1a2238"/>
<rect x="90" y="206" width="30" height="24" fill="#1e2740"/>
<rect x="100" y="188" width="10" height="18" fill="#1a2238"/>
<ellipse cx="105" cy="188" rx="7" ry="3" fill="#161d30"/>
<rect x="200" y="210" width="40" height="20" fill="#1e2740"/>
<polygon points="198,210 220,199 242,210" fill="#1a2238"/>
<rect x="275" y="135" width="112" height="105" fill="#4a4030"/>
<rect x="275" y="235" width="112" height="5" fill="#3a3224"/>
<polygon points="268,136 331,104 394,136" fill="#3a2a22"/>
<polygon points="340,120 356,112 362,116 346,124" fill="#4a3a30"/>
<line x1="268" y1="136" x2="394" y2="136" stroke="#2a1e18" stroke-width="2"/>
<rect x="300" y="180" width="26" height="60" fill="#2a1e14"/>
<circle cx="321" cy="210" r="1.5" fill="#8a7a5a"/>
<rect x="281" y="158" width="10" height="28" fill="#2c3a50" stroke="#3a2e22" stroke-width="1.5"/>
<circle cx="362" cy="172" r="60" fill="url(#halo)"/>
<rect x="350" y="158" width="24" height="28" fill="#f6d98a"/>
<line x1="362" y1="158" x2="362" y2="186" stroke="#8a5a3c" stroke-width="2"/>
<line x1="350" y1="172" x2="374" y2="172" stroke="#8a5a3c" stroke-width="2"/>
<rect x="348" y="156" width="28" height="32" fill="none" stroke="#6b4a2e" stroke-width="2"/>
<rect x="353" y="176" width="3" height="10" fill="#8a5a3c"/>
<rect x="366" y="178" width="7" height="8" fill="#b23b3b"/>
<rect x="366" y="174" width="7" height="4" fill="#3b6ea5"/>
<polygon points="350,240 374,240 400,300 320,300" fill="#f6d98a" opacity="0.14"/>
<text x="313" y="170" font-family="sans-serif" font-size="8" fill="#6b5a44" text-anchor="middle" letter-spacing="1">BIBLIOTECA</text>
<rect x="112" y="200" width="16" height="130" fill="#2a1e14"/>
<path d="M120 230 L95 200" stroke="#2a1e14" stroke-width="6" stroke-linecap="round"/>
<path d="M120 215 L150 190" stroke="#2a1e14" stroke-width="5" stroke-linecap="round"/>
<circle cx="120" cy="175" r="55" fill="#1f3a2a"/>
<circle cx="78" cy="195" r="40" fill="#24402e"/>
<circle cx="163" cy="190" r="42" fill="#1b3326"/>
<circle cx="120" cy="143" r="40" fill="#28452f"/>
<circle cx="93" cy="158" r="30" fill="#2d4c34"/>
<circle cx="152" cy="158" r="28" fill="#24402e"/>
<circle cx="108" cy="185" r="22" fill="#1b3326"/>
<path d="M150 150 Q215 175 280 150" fill="none" stroke="#3a3a44" stroke-width="1.2"/>
<rect x="203" y="167" width="4" height="4" fill="#4a5a6a"/>
<rect x="55" y="296" width="212" height="8" fill="#5a4530"/>
<rect x="55" y="304" width="212" height="3" fill="#3f2f20"/>
<line x1="66" y1="307" x2="66" y2="342" stroke="#3f2f20" stroke-width="4"/>
<line x1="158" y1="307" x2="158" y2="342" stroke="#3f2f20" stroke-width="4"/>
<line x1="256" y1="307" x2="256" y2="342" stroke="#3f2f20" stroke-width="4"/>
<circle cx="180" cy="292" r="4" fill="#2f4a55"/>
<rect x="62" y="322" width="18" height="4" fill="#3f2f20"/>
<line x1="64" y1="326" x2="62" y2="346" stroke="#3f2f20" stroke-width="2"/>
<line x1="78" y1="326" x2="80" y2="346" stroke="#3f2f20" stroke-width="2"/>
<line x1="71" y1="326" x2="71" y2="346" stroke="#3f2f20" stroke-width="2"/>
<circle cx="112" cy="318" r="10" fill="none" stroke="#2f4a55" stroke-width="3"/>
<rect x="101" y="326" width="22" height="4" fill="#2f4a55"/>
<line x1="103" y1="330" x2="103" y2="348" stroke="#2f4a55" stroke-width="2"/>
<line x1="121" y1="330" x2="121" y2="348" stroke="#2f4a55" stroke-width="2"/>
<rect x="142" y="322" width="62" height="6" fill="#4a3522"/>
<rect x="168" y="322" width="13" height="6" fill="#6a4a2a"/>
<line x1="146" y1="328" x2="146" y2="346" stroke="#3f2f20" stroke-width="2.5"/>
<line x1="200" y1="328" x2="200" y2="346" stroke="#3f2f20" stroke-width="2.5"/>
<line x1="258" y1="322" x2="272" y2="344" stroke="#333" stroke-width="2"/>
<line x1="272" y1="322" x2="258" y2="344" stroke="#333" stroke-width="2"/>
<rect x="257" y="320" width="16" height="3" fill="#5a2a2a"/>
<rect x="221" y="332" width="20" height="14" rx="4" fill="#cfc4a8" stroke="#9a9280" stroke-width="1.5"/>
<line x1="224" y1="346" x2="223" y2="362" stroke="#9a9280" stroke-width="2"/>
<line x1="238" y1="346" x2="239" y2="362" stroke="#9a9280" stroke-width="2"/>
<ellipse cx="110" cy="338" rx="15" ry="6" fill="#2a2420"/>
<circle cx="124" cy="335" r="5" fill="#2a2420"/>
<circle cx="292" cy="228" r="9" fill="none" stroke="#1a1a1a" stroke-width="2"/>
<circle cx="316" cy="228" r="9" fill="none" stroke="#1a1a1a" stroke-width="2"/>
<polyline points="292,228 302,214 316,228 308,214" fill="none" stroke="#1f4a60" stroke-width="2"/>
<circle cx="330" cy="318" r="7" fill="#4a3a30"/>
<rect x="323" y="325" width="14" height="22" rx="3" fill="#3a3a4a"/>
<line x1="326" y1="347" x2="322" y2="366" stroke="#2a2a34" stroke-width="3"/>
<line x1="334" y1="347" x2="339" y2="366" stroke="#2a2a34" stroke-width="3"/>
<line x1="323" y1="332" x2="315" y2="344" stroke="#4a3a30" stroke-width="3" stroke-linecap="round"/>
<ellipse cx="336" cy="372" rx="20" ry="4" fill="#2e2d36"/>
</svg>
