<svg viewBox="0 0 400 400" xmlns="http://www.w3.org/2000/svg">
  <defs>
    <linearGradient id="tronco" x1="0%" y1="0%" x2="0%" y2="100%">
      <stop offset="0%" stop-color="#5e3023"/>
      <stop offset="100%" stop-color="#2d1810"/>
    </linearGradient>
    <radialGradient id="hojas" cx="50%" cy="50%" r="50%" fx="50%" fy="50%">
      <stop offset="0%" stop-color="#a8e6cf"/>
      <stop offset="50%" stop-color="#7fcdcd"/>
      <stop offset="100%" stop-color="#2b8a8a"/>
    </radialGradient>
    <filter id="brillo" x="-20%" y="-20%" width="140%" height="140%">
      <feGaussianBlur stdDeviation="2" result="blur"/>
      <feComposite in="SourceGraphic" in2="blur" operator="over"/>
    </filter>
  </defs>
  <rect width="400" height="400" fill="#1a1a2e"/>
  <path d="M200,350 Q220,300 200,250 Q180,300 200,350 Z" fill="url(#tronco)" stroke="#3a2015" stroke-width="3"/>
  <path d="M200,250 Q250,200 220,150 Q200,100 180,150 Q150,200 200,250 Z" fill="url(#hojas)" filter="url(#brillo)"/>
  <circle cx="180" cy="120" r="15" fill="#ff9e00" opacity="0.8"/>
  <circle cx="220" cy="140" r="12" fill="#ff9e00" opacity="0.8"/>
  <circle cx="200" cy="100" r="10" fill="#ff9e00" opacity="0.8"/>
  <path d="M200,250 Q230,220 210,180 Q200,150 190,180 Q170,220 200,250 Z" fill="url(#hojas)" opacity="0.7"/>
  <path d="M200,150 L200,100" stroke="#ff9e00" stroke-width="2" stroke-linecap="round"/>
  <ellipse cx="200" cy="350" rx="30" ry="10" fill="#3a2015"/>
  <path d="M170,350 Q180,340 190,350" stroke="#5e3023" stroke-width="2" fill="none"/>
  <path d="M210,350 Q220,340 230,350" stroke="#5e3023" stroke-width="2" fill="none"/>
</svg>